HIERARCHY
ROOT hip
{
  OFFSET 0 90.174 2.4664
  CHANNELS 6 Xposition Yposition Zposition Zrotation Xrotation Yrotation
  JOINT abdomen
  {
    OFFSET 0 -1.186 -1.5018
    CHANNELS 6 Xposition Yposition Zposition Zrotation Xrotation Yrotation
    JOINT abdomen2
    {
      OFFSET 0 9.964 0.2134
      CHANNELS 6 Xposition Yposition Zposition Zrotation Xrotation Yrotation
      JOINT chest
      {
        OFFSET 0 13.134 -3.2573
        CHANNELS 6 Xposition Yposition Zposition Zrotation Xrotation Yrotation
        JOINT neck
        {
          OFFSET 0 20.686 -1.6905
          CHANNELS 6 Xposition Yposition Zposition Zrotation Xrotation Yrotation
          JOINT head
          {
            OFFSET 0 7.238 -0.1237
            CHANNELS 6 Xposition Yposition Zposition Zrotation Xrotation Yrotation
            End Site
            {
              OFFSET 0 0 0
            }
          }
        }
        JOINT lCollar
        {
          OFFSET 1.7069 20.075 5.0056
          CHANNELS 6 Xposition Yposition Zposition Zrotation Xrotation Yrotation
          JOINT lShldr
          {
            OFFSET 13.6458 -0.047 -4.849
            CHANNELS 6 Xposition Yposition Zposition Zrotation Xrotation Yrotation
            JOINT lForeArm
            {
              OFFSET 28.3255 -0.9759 2.2888
              CHANNELS 6 Xposition Yposition Zposition Zrotation Xrotation Yrotation
              JOINT lHand
              {
                OFFSET 22.1583 -0.53 10.8316
                CHANNELS 6 Xposition Yposition Zposition Zrotation Xrotation Yrotation
                JOINT lThumb1
                {
                  OFFSET 0.786 0.112 2.5817
                  CHANNELS 6 Xposition Yposition Zposition Zrotation Xrotation Yrotation
                  JOINT lThumb2
                  {
                    OFFSET 0.3601 -0.878 4.2331
                    CHANNELS 6 Xposition Yposition Zposition Zrotation Xrotation Yrotation
                    JOINT lThumb2_End
                    {
                      OFFSET 1.8127 -1.216 2.2227
                      CHANNELS 6 Xposition Yposition Zposition Zrotation Xrotation Yrotation
                      End Site
                      {
                        OFFSET 0.0181 -0.0122 0.0222
                      }
                    }
                  }
                }
                JOINT lCarpal1
                {
                  OFFSET 0.9571 1.114 1.7695
                  CHANNELS 6 Xposition Yposition Zposition Zrotation Xrotation Yrotation
                  JOINT lIndex1
                  {
                    OFFSET 4.1246 0.487 4.1451
                    CHANNELS 6 Xposition Yposition Zposition Zrotation Xrotation Yrotation
                    JOINT lIndex2
                    {
                      OFFSET 3.4052 -1.454 2.7682
                      CHANNELS 6 Xposition Yposition Zposition Zrotation Xrotation Yrotation
                      JOINT lIndex2_End
                      {
                        OFFSET 1.4531 -1.795 1.2713
                        CHANNELS 6 Xposition Yposition Zposition Zrotation Xrotation Yrotation
                        End Site
                        {
                          OFFSET 0.0145 -0.0179 0.0127
                        }
                      }
                    }
                  }
                  JOINT lMid1
                  {
                    OFFSET 5.6954 0.21 2.1184
                    CHANNELS 6 Xposition Yposition Zposition Zrotation Xrotation Yrotation
                    JOINT lMid2
                    {
                      OFFSET 3.9766 -1.54 2.3863
                      CHANNELS 6 Xposition Yposition Zposition Zrotation Xrotation Yrotation
                      JOINT lMid2_End
                      {
                        OFFSET 1.4042 -1.926 1.125
                        CHANNELS 6 Xposition Yposition Zposition Zrotation Xrotation Yrotation
                        End Site
                        {
                          OFFSET 0.014 -0.0193 0.0113
                        }
                      }
                    }
                  }
                }
                JOINT lCarpal2
                {
                  OFFSET 2.0956 0.66 -0.3894
                  CHANNELS 6 Xposition Yposition Zposition Zrotation Xrotation Yrotation
                  JOINT lRing1
                  {
                    OFFSET 5.0395 -0.09 2.4971
                    CHANNELS 6 Xposition Yposition Zposition Zrotation Xrotation Yrotation
                    JOINT lRing2
                    {
                      OFFSET 3.7921 -1.552 1.4806
                      CHANNELS 6 Xposition Yposition Zposition Zrotation Xrotation Yrotation
                      JOINT lRing2_End
                      {
                        OFFSET 1.4655 -1.808 0.9609
                        CHANNELS 6 Xposition Yposition Zposition Zrotation Xrotation Yrotation
                        End Site
                        {
                          OFFSET 0.0147 -0.0181 0.0096
                        }
                      }
                    }
                  }
                  JOINT lPinky1
                  {
                    OFFSET 4.9141 -1.269 0.3591
                    CHANNELS 6 Xposition Yposition Zposition Zrotation Xrotation Yrotation
                    JOINT lPinky2
                    {
                      OFFSET 3.1477 -1.685 0.8462
                      CHANNELS 6 Xposition Yposition Zposition Zrotation Xrotation Yrotation
                      JOINT lPinky2_End
                      {
                        OFFSET 0.8055 -1.585 0.7955
                        CHANNELS 6 Xposition Yposition Zposition Zrotation Xrotation Yrotation
                        End Site
                        {
                          OFFSET 0.0081 -0.0158 0.008
                        }
                      }
                    }
                  }
                }
              }
            }
          }
        }
        JOINT rCollar
        {
          OFFSET -1.7069 20.075 5.0056
          CHANNELS 6 Xposition Yposition Zposition Zrotation Xrotation Yrotation
          JOINT rShldr
          {
            OFFSET -13.6458 -0.047 -4.849
            CHANNELS 6 Xposition Yposition Zposition Zrotation Xrotation Yrotation
            JOINT rForeArm
            {
              OFFSET -28.3255 -0.9759 2.2888
              CHANNELS 6 Xposition Yposition Zposition Zrotation Xrotation Yrotation
              JOINT rHand
              {
                OFFSET -22.1583 -0.53 10.8316
                CHANNELS 6 Xposition Yposition Zposition Zrotation Xrotation Yrotation
                JOINT rThumb1
                {
                  OFFSET -0.786 0.112 2.5817
                  CHANNELS 6 Xposition Yposition Zposition Zrotation Xrotation Yrotation
                  JOINT rThumb2
                  {
                    OFFSET -0.3601 -0.878 4.2331
                    CHANNELS 6 Xposition Yposition Zposition Zrotation Xrotation Yrotation
                    JOINT rThumb2_End
                    {
                      OFFSET -1.8127 -1.216 2.2227
                      CHANNELS 6 Xposition Yposition Zposition Zrotation Xrotation Yrotation
                      End Site
                      {
                        OFFSET -0.0181 -0.0122 0.0222
                      }
                    }
                  }
                }
                JOINT rCarpal1
                {
                  OFFSET -0.9571 1.114 1.7695
                  CHANNELS 6 Xposition Yposition Zposition Zrotation Xrotation Yrotation
                  JOINT rIndex1
                  {
                    OFFSET -4.1246 0.487 4.1451
                    CHANNELS 6 Xposition Yposition Zposition Zrotation Xrotation Yrotation
                    JOINT rIndex2
                    {
                      OFFSET -3.4052 -1.454 2.7682
                      CHANNELS 6 Xposition Yposition Zposition Zrotation Xrotation Yrotation
                      JOINT rIndex2_End
                      {
                        OFFSET -1.4531 -1.795 1.2713
                        CHANNELS 6 Xposition Yposition Zposition Zrotation Xrotation Yrotation
                        End Site
                        {
                          OFFSET -0.0145 -0.018 0.0127
                        }
                      }
                    }
                  }
                  JOINT rMid1
                  {
                    OFFSET -5.6954 0.21 2.1184
                    CHANNELS 6 Xposition Yposition Zposition Zrotation Xrotation Yrotation
                    JOINT rMid2
                    {
                      OFFSET -3.9766 -1.54 2.3863
                      CHANNELS 6 Xposition Yposition Zposition Zrotation Xrotation Yrotation
                      JOINT rMid2_End
                      {
                        OFFSET -1.4042 -1.926 1.125
                        CHANNELS 6 Xposition Yposition Zposition Zrotation Xrotation Yrotation
                        End Site
                        {
                          OFFSET -0.014 -0.0193 0.0113
                        }
                      }
                    }
                  }
                }
                JOINT rCarpal2
                {
                  OFFSET -2.0956 0.66 -0.3894
                  CHANNELS 6 Xposition Yposition Zposition Zrotation Xrotation Yrotation
                  JOINT rRing1
                  {
                    OFFSET -5.0395 -0.09 2.4971
                    CHANNELS 6 Xposition Yposition Zposition Zrotation Xrotation Yrotation
                    JOINT rRing2
                    {
                      OFFSET -3.7921 -1.552 1.4806
                      CHANNELS 6 Xposition Yposition Zposition Zrotation Xrotation Yrotation
                      JOINT rRing2_End
                      {
                        OFFSET -1.4655 -1.808 0.9609
                        CHANNELS 6 Xposition Yposition Zposition Zrotation Xrotation Yrotation
                        End Site
                        {
                          OFFSET -0.0147 -0.0181 0.0096
                        }
                      }
                    }
                  }
                  JOINT rPinky1
                  {
                    OFFSET -4.9141 -1.269 0.3592
                    CHANNELS 6 Xposition Yposition Zposition Zrotation Xrotation Yrotation
                    JOINT rPinky2
                    {
                      OFFSET -3.1477 -1.685 0.8462
                      CHANNELS 6 Xposition Yposition Zposition Zrotation Xrotation Yrotation
                      JOINT rPinky2_End
                      {
                        OFFSET -0.8055 -1.585 0.7955
                        CHANNELS 6 Xposition Yposition Zposition Zrotation Xrotation Yrotation
                        End Site
                        {
                          OFFSET -0.0081 -0.0158 0.008
                        }
                      }
                    }
                  }
                }
              }
            }
          }
        }
      }
    }
  }
  JOINT lThigh
  {
    OFFSET 8.367 -8.2066 0.5982
    CHANNELS 6 Xposition Yposition Zposition Zrotation Xrotation Yrotation
    JOINT lShin
    {
      OFFSET 2.1923 -43.463 -0.4932
      CHANNELS 6 Xposition Yposition Zposition Zrotation Xrotation Yrotation
      JOINT lFoot
      {
        OFFSET 0.7333 -45.8593 -2.6451
        CHANNELS 6 Xposition Yposition Zposition Zrotation Xrotation Yrotation
        End Site
        {
          OFFSET 2.6618 -4.2699 12.3931
        }
      }
    }
  }
  JOINT rThigh
  {
    OFFSET -8.367 -8.2066 0.5982
    CHANNELS 6 Xposition Yposition Zposition Zrotation Xrotation Yrotation
    JOINT rShin
    {
      OFFSET -2.1923 -43.463 -0.4931
      CHANNELS 6 Xposition Yposition Zposition Zrotation Xrotation Yrotation
      JOINT rFoot
      {
        OFFSET -0.7333 -45.8593 -2.6451
        CHANNELS 6 Xposition Yposition Zposition Zrotation Xrotation Yrotation
        End Site
        {
          OFFSET -2.6618 -4.2699 12.3931
        }
      }
    }
  }
}
MOTION
Frames:	4
Frame Time:	0.0333333
0 90.174 2.4664 0 0 -0 0 -1.186 -1.5018 0 0 -0 0 9.964 0.2134 0 0 -0 0 13.134 -3.2573 0 0 -0 0 20.686 -1.6905 0 0 -0 0 7.238 -0.1237 0 0 -0 1.7069 20.075 5.0056 0 0 -0 13.6458 -0.047 -4.849 1.66051 0.0835086 5.75766 28.3255 -0.9759 2.2888 -0.0175111 0.895433 15.7816 22.1583 -0.53 10.8316 7.95139e-016 -1.98785e-016 -0 0.786 0.112 2.5817 5.46658e-016 -3.97569e-016 -0 0.3601 -0.878 4.2331 5.96354e-016 0 -0 1.8127 -1.216 2.2227 3.97569e-016 1.98785e-016 9.54166e-015 0.9571 1.114 1.7695 1.49089e-016 -3.97569e-016 -0 4.1246 0.487 4.1451 6.4605e-016 0 3.18055e-015 3.4052 -1.454 2.7682 5.96354e-016 0 3.18055e-015 1.4531 -1.795 1.2713 8.94531e-016 -1.98785e-016 6.36111e-015 5.6954 0.21 2.1184 6.4605e-016 0 3.18055e-015 3.9766 -1.54 2.3863 5.96354e-016 0 3.18055e-015 1.4042 -1.926 1.125 8.94531e-016 -1.98785e-016 6.36111e-015 2.0956 0.66 -0.3894 1.49089e-016 -3.97569e-016 -0 5.0395 -0.09 2.4971 6.4605e-016 0 3.18055e-015 3.7921 -1.552 1.4806 5.96354e-016 0 3.18055e-015 1.4655 -1.808 0.9609 8.94531e-016 -1.98785e-016 6.36111e-015 4.9141 -1.269 0.3591 6.4605e-016 0 3.18055e-015 3.1477 -1.685 0.8462 5.96354e-016 0 3.18055e-015 0.8055 -1.585 0.7955 8.94531e-016 -1.98785e-016 6.36111e-015 -1.7069 20.075 5.0056 0 0 -0 -13.6458 -0.047 -4.849 -1.4496 0.0636048 -5.0245 -28.3255 -0.9759 2.2888 -1.74811 1.20616 -16.8394 -22.1583 -0.53 10.8316 -1.19271e-015 1.98785e-016 -3.18055e-015 -0.786 0.112 2.5817 -3.97569e-016 1.98785e-016 -3.18055e-015 -0.3601 -0.878 4.2331 -2.98177e-016 1.98785e-016 -3.18055e-015 -1.8127 -1.216 2.2227 -2.98177e-016 3.97569e-016 -0 -0.9571 1.114 1.7695 4.96962e-016 0 -6.36111e-015 -4.1246 0.487 4.1451 -9.93923e-017 3.97569e-016 -0 -3.4052 -1.454 2.7682 -8.94531e-016 5.96354e-016 -0 -1.4531 -1.795 1.2713 -3.97569e-016 3.97569e-016 -0 -5.6954 0.21 2.1184 -9.93923e-017 3.97569e-016 -0 -3.9766 -1.54 2.3863 -8.94531e-016 5.96354e-016 -0 -1.4042 -1.926 1.125 -3.97569e-016 3.97569e-016 -0 -2.0956 0.66 -0.3894 4.96962e-016 0 -6.36111e-015 -5.0395 -0.09 2.4971 -9.93923e-017 3.97569e-016 -0 -3.7921 -1.552 1.4806 -8.94531e-016 5.96354e-016 -0 -1.4655 -1.808 0.9609 -3.97569e-016 3.97569e-016 -0 -4.9141 -1.269 0.3592 -9.93923e-017 3.97569e-016 -0 -3.1477 -1.685 0.8462 -8.94531e-016 5.96354e-016 -0 -0.8055 -1.585 0.7955 -3.97569e-016 3.97569e-016 -0 8.367 -8.2066 0.5982 -4.66115 -1.03232 0.120763 2.1923 -43.463 -0.4932 0.00990601 1.55097 0.177175 0.7333 -45.8593 -2.6451 4.65196 -0.54114 -0.255042 -8.367 -8.2066 0.5982 4.66115 -1.03222 -0.120763 -2.1923 -43.463 -0.4931 -0.00990459 1.5509 -0.177176 -0.7333 -45.8593 -2.6451 -4.65196 -0.541171 0.255041 
43.4207 30.5855 29.5508 -179.999 58.9984 12.9916 -7.10543e-015 -1.186 -1.5018 -0.311061 6.23916 -2.86023 -7.10543e-015 9.964 0.2134 -0.309128 12.4861 -5.73774 -7.10543e-015 13.134 -3.2573 -0.309126 12.4861 -5.73773 -7.10543e-015 20.686 -1.6905 1.2931e-005 13.9963 -6.71521e-006 0 7.238 -0.1237 0.000817093 -0.159103 0.589272 1.7069 20.075 5.0056 -8.94838 5.88101 7.70269 13.6458 -0.047 -4.849 -49.0775 55.0701 6.08415 28.3255 -0.9759 2.2888 17.5298 32.3551 -8.71832 22.1583 -0.53 10.8316 1.36863 -0.359046 3.80995 0.786 0.112 2.5817 -2.23096e-007 7.17463e-007 6.04377e-006 0.3601 -0.878 4.2331 2.02141e-007 -8.01726e-008 5.33922e-008 1.8127 -1.216 2.2227 1.26848e-007 3.57937e-007 3.02061e-006 0.9571 1.114 1.7695 7.95139e-016 0 -3.18055e-015 4.1246 0.487 4.1451 -2.23096e-007 7.17463e-007 6.04377e-006 3.4052 -1.454 2.7682 2.02141e-007 -8.01726e-008 5.33922e-008 1.4531 -1.795 1.2713 1.26848e-007 3.57937e-007 3.02061e-006 5.6954 0.21 2.1184 -2.23096e-007 7.17463e-007 6.04377e-006 3.9766 -1.54 2.3863 2.02141e-007 -8.01726e-008 5.33922e-008 1.4042 -1.926 1.125 1.26848e-007 3.57937e-007 3.02061e-006 2.0956 0.66 -0.3894 7.95139e-016 0 -3.18055e-015 5.0395 -0.09 2.4971 -2.23096e-007 7.17463e-007 6.04377e-006 3.7921 -1.552 1.4806 2.02141e-007 -8.01726e-008 5.33922e-008 1.4655 -1.808 0.9609 1.26848e-007 3.57937e-007 3.02061e-006 4.9141 -1.269 0.3591 -2.23096e-007 7.17463e-007 6.04377e-006 3.1477 -1.685 0.8462 2.02141e-007 -8.01726e-008 5.33922e-008 0.8055 -1.585 0.7955 1.26848e-007 3.57937e-007 3.02061e-006 -1.7069 20.075 5.0056 19.3594 -0.559183 1.20403 -13.6458 -0.047 -4.849 36.7714 55.1114 -6.26759 -28.3255 -0.9759 2.2888 33.7549 -27.4291 139.588 -22.1583 -0.53 10.8316 47.1726 6.8501 -7.18856 -0.786 0.112 2.5817 3.52379e-006 -6.7471e-009 1.60481e-007 -0.3601 -0.878 4.2331 3.97252e-031 9.54166e-015 -2.38542e-015 -1.8127 -1.216 2.2227 -2.86817e-007 3.2419e-007 5.36688e-007 -0.9571 1.114 1.7695 -2.38542e-015 3.18055e-015 7.95139e-016 -4.1246 0.487 4.1451 3.52379e-006 -6.7471e-009 1.60481e-007 -3.4052 -1.454 2.7682 4.37326e-015 0 -7.95139e-016 -1.4531 -1.795 1.2713 -2.86817e-007 3.2419e-007 5.36688e-007 -5.6954 0.21 2.1184 3.52379e-006 -6.7471e-009 1.60481e-007 -3.9766 -1.54 2.3863 4.37326e-015 0 -7.95139e-016 -1.4042 -1.926 1.125 -2.86817e-007 3.2419e-007 5.36688e-007 -2.0956 0.66 -0.3894 -2.38542e-015 3.18055e-015 7.95139e-016 -5.0395 -0.09 2.4971 3.52379e-006 -6.7471e-009 1.60481e-007 -3.7921 -1.552 1.4806 4.37326e-015 0 -7.95139e-016 -1.4655 -1.808 0.9609 -2.86817e-007 3.2419e-007 5.36688e-007 -4.9141 -1.269 0.3592 3.52379e-006 -6.7471e-009 1.60481e-007 -3.1477 -1.685 0.8462 4.37326e-015 0 -7.95139e-016 -0.8055 -1.585 0.7955 -2.86817e-007 3.2419e-007 5.36688e-007 8.367 -8.2066 0.5982 45.7358 -80.7758 76.8904 2.1923 -43.463 -0.4932 2.25725 38.029 -41.6694 0.7333 -45.8593 -2.6451 25.1968 -0.0103427 6.40975 -8.367 -8.2066 0.5982 53.6265 -71.4834 34.5247 -2.1923 -43.463 -0.4931 -2.04524 35.134 41.9606 -0.7333 -45.8593 -2.6451 -26.3671 1.00745 -7.13477 
43.4268 30.5852 29.5087 -179.999 58.9984 12.9916 0 -1.186 -1.5018 -0.281719 6.42588 -2.86291 7.10543e-015 9.964 0.2134 -0.239992 12.8578 -5.74863 7.10543e-015 13.134 -3.2573 -0.239993 12.8578 -5.74863 7.10543e-015 20.686 -1.6905 -0.4078 13.9959 0.0986327 0 7.238 -0.1237 -0.0581175 -0.305459 1.16397 1.7069 20.075 5.0056 -8.37939 5.39286 6.98923 13.6458 -0.047 -4.849 -49.4153 55.0715 6.13964 28.3255 -0.9759 2.2888 17.5298 32.3551 -8.71833 22.1583 -0.53 10.8316 1.32112 -1.04745 3.89808 0.786 0.112 2.5817 -4.9135e-008 8.70637e-008 3.1049e-006 0.3601 -0.878 4.2331 7.95139e-016 -3.97569e-016 6.36111e-015 1.8127 -1.216 2.2227 1.59028e-015 3.97569e-016 3.18055e-015 0.9571 1.114 1.7695 -3.97569e-016 3.97569e-016 -0 4.1246 0.487 4.1451 -4.9135e-008 8.70637e-008 3.1049e-006 3.4052 -1.454 2.7682 -4.41391e-032 3.97569e-016 6.36111e-015 1.4531 -1.795 1.2713 7.95139e-016 3.97569e-016 9.54166e-015 5.6954 0.21 2.1184 -4.9135e-008 8.70637e-008 3.1049e-006 3.9766 -1.54 2.3863 -4.41391e-032 3.97569e-016 6.36111e-015 1.4042 -1.926 1.125 7.95139e-016 3.97569e-016 9.54166e-015 2.0956 0.66 -0.3894 -3.97569e-016 3.97569e-016 -0 5.0395 -0.09 2.4971 -4.9135e-008 8.70637e-008 3.1049e-006 3.7921 -1.552 1.4806 -4.41391e-032 3.97569e-016 6.36111e-015 1.4655 -1.808 0.9609 7.95139e-016 3.97569e-016 9.54166e-015 4.9141 -1.269 0.3591 -4.9135e-008 8.70637e-008 3.1049e-006 3.1477 -1.685 0.8462 -4.41391e-032 3.97569e-016 6.36111e-015 0.8055 -1.585 0.7955 7.95139e-016 3.97569e-016 9.54166e-015 -1.7069 20.075 5.0056 19.3594 -0.559187 1.20404 -13.6458 -0.047 -4.849 36.7714 55.1113 -6.26756 -28.3255 -0.9759 2.2888 33.5335 -27.6954 139.11 -22.1583 -0.53 10.8316 47.1726 6.8501 -7.18856 -0.786 0.112 2.5817 -1.47564e-006 1.01535e-006 -5.90811e-007 -0.3601 -0.878 4.2331 -1.93213e-006 -1.54564e-006 7.35819e-007 -1.8127 -1.216 2.2227 -1.30732e-006 -6.05362e-007 -9.78102e-007 -0.9571 1.114 1.7695 -5.1684e-015 -3.18055e-015 -1.59028e-015 -4.1246 0.487 4.1451 -1.47564e-006 1.01535e-006 -5.90811e-007 -3.4052 -1.454 2.7682 -1.93213e-006 -1.54564e-006 7.35819e-007 -1.4531 -1.795 1.2713 -1.30732e-006 -6.05362e-007 -9.78102e-007 -5.6954 0.21 2.1184 -1.47564e-006 1.01535e-006 -5.90811e-007 -3.9766 -1.54 2.3863 -1.93213e-006 -1.54564e-006 7.35819e-007 -1.4042 -1.926 1.125 -1.30732e-006 -6.05362e-007 -9.78102e-007 -2.0956 0.66 -0.3894 -5.1684e-015 -3.18055e-015 -1.59028e-015 -5.0395 -0.09 2.4971 -1.47564e-006 1.01535e-006 -5.90811e-007 -3.7921 -1.552 1.4806 -1.93213e-006 -1.54564e-006 7.35819e-007 -1.4655 -1.808 0.9609 -1.30732e-006 -6.05362e-007 -9.78102e-007 -4.9141 -1.269 0.3592 -1.47564e-006 1.01535e-006 -5.90811e-007 -3.1477 -1.685 0.8462 -1.93213e-006 -1.54564e-006 7.35819e-007 -0.8055 -1.585 0.7955 -1.30732e-006 -6.05362e-007 -9.78102e-007 8.367 -8.2066 0.5982 48.0311 -81.1192 79.2148 2.1923 -43.463 -0.4932 2.25663 38.0221 -41.6704 0.7333 -45.8593 -2.6451 25.1928 -0.00270985 6.40839 -8.367 -8.2066 0.5982 54.7358 -71.7486 35.6904 -2.1923 -43.463 -0.4931 -2.047 35.1548 41.958 -0.7333 -45.8593 -2.6451 -26.376 1.00022 -7.13573 
43.4329 30.5852 29.4665 -179.999 58.9984 12.9916 7.10543e-015 -1.186 -1.5018 -0.252253 6.61369 -2.86491 0 9.964 0.2134 -0.170511 13.2317 -5.7585 -7.10543e-015 13.134 -3.2573 -0.170516 13.2317 -5.7585 0 20.686 -1.6905 -0.815917 13.9949 0.197332 0 7.238 -0.1237 -0.115699 -0.452714 1.73971 1.7069 20.075 5.0056 -7.81631 4.89714 6.28035 13.6458 -0.047 -4.849 -49.7532 55.0726 6.19515 28.3255 -0.9759 2.2888 17.5298 32.3551 -8.71835 22.1583 -0.53 10.8316 1.27461 -1.73634 3.98571 0.786 0.112 2.5817 3.3892e-007 8.52745e-007 9.05025e-006 0.3601 -0.878 4.2331 -4.54267e-008 8.6315e-008 3.12434e-006 1.8127 -1.216 2.2227 -1.87783e-007 3.82875e-007 -1.60625e-008 0.9571 1.114 1.7695 -3.97569e-016 3.97569e-016 3.18055e-015 4.1246 0.487 4.1451 3.3892e-007 8.52745e-007 9.05025e-006 3.4052 -1.454 2.7682 -4.54267e-008 8.6315e-008 3.12434e-006 1.4531 -1.795 1.2713 -1.87783e-007 3.82875e-007 -1.60625e-008 5.6954 0.21 2.1184 3.3892e-007 8.52745e-007 9.05025e-006 3.9766 -1.54 2.3863 -4.54267e-008 8.6315e-008 3.12434e-006 1.4042 -1.926 1.125 -1.87783e-007 3.82875e-007 -1.60625e-008 2.0956 0.66 -0.3894 -3.97569e-016 3.97569e-016 3.18055e-015 5.0395 -0.09 2.4971 3.3892e-007 8.52745e-007 9.05025e-006 3.7921 -1.552 1.4806 -4.54267e-008 8.6315e-008 3.12434e-006 1.4655 -1.808 0.9609 -1.87783e-007 3.82875e-007 -1.60625e-008 4.9141 -1.269 0.3591 3.3892e-007 8.52745e-007 9.05025e-006 3.1477 -1.685 0.8462 -4.54267e-008 8.6315e-008 3.12434e-006 0.8055 -1.585 0.7955 -1.87783e-007 3.82875e-007 -1.60625e-008 -1.7069 20.075 5.0056 19.3594 -0.559192 1.20403 -13.6458 -0.047 -4.849 36.7714 55.1113 -6.26756 -28.3255 -0.9759 2.2888 33.309 -27.9601 138.631 -22.1583 -0.53 10.8316 47.1726 6.8501 -7.18857 -0.786 0.112 2.5817 1.78112e-006 3.71802e-007 -4.94736e-007 -0.3601 -0.878 4.2331 -3.97569e-015 6.36111e-015 1.59028e-015 -1.8127 -1.216 2.2227 1.60318e-006 1.99459e-006 -1.07016e-007 -0.9571 1.114 1.7695 -2.38542e-015 3.18055e-015 1.59028e-015 -4.1246 0.487 4.1451 1.78112e-006 3.71802e-007 -4.94736e-007 -3.4052 -1.454 2.7682 -1.19271e-015 6.36111e-015 3.97569e-015 -1.4531 -1.795 1.2713 1.60318e-006 1.99459e-006 -1.07016e-007 -5.6954 0.21 2.1184 1.78112e-006 3.71802e-007 -4.94736e-007 -3.9766 -1.54 2.3863 -1.19271e-015 6.36111e-015 3.97569e-015 -1.4042 -1.926 1.125 1.60318e-006 1.99459e-006 -1.07016e-007 -2.0956 0.66 -0.3894 -2.38542e-015 3.18055e-015 1.59028e-015 -5.0395 -0.09 2.4971 1.78112e-006 3.71802e-007 -4.94736e-007 -3.7921 -1.552 1.4806 -1.19271e-015 6.36111e-015 3.97569e-015 -1.4655 -1.808 0.9609 1.60318e-006 1.99459e-006 -1.07016e-007 -4.9141 -1.269 0.3592 1.78112e-006 3.71802e-007 -4.94736e-007 -3.1477 -1.685 0.8462 -1.19271e-015 6.36111e-015 3.97569e-015 -0.8055 -1.585 0.7955 1.60318e-006 1.99459e-006 -1.07016e-007 8.367 -8.2066 0.5982 50.5069 -81.4472 81.7198 2.1923 -43.463 -0.4932 2.25598 38.0147 -41.6714 0.7333 -45.8593 -2.6451 25.1887 0.00512492 6.40699 -8.367 -8.2066 0.5982 55.8784 -72.0065 36.8894 -2.1923 -43.463 -0.4931 -2.04876 35.1755 41.9553 -0.7333 -45.8593 -2.6451 -26.3849 0.993134 -7.13668 
